<svg xmlns="http://www.w3.org/2000/svg" viewBox="0 0 256 256" preserveAspectRatio="xMidYMid meet" version="1.2" baseProfile="tiny-ps" xml:space="preserve"><title>LogoXamxai</title><path fill="#fff" d="M0 128v128h256V0H0zm143-67.5c3 .8 7.6 2.5 10.2 3.9 3.4 1.8 5.7 2.3 8.1 1.9 2.6-.4 4 .1 6.5 2.2 2.7 2.2 3.2 3.4 3.2 7s-.5 4.8-3.1 6.9c-5.9 5-13.5 1.9-14.8-6-.5-3.3-1.2-4.2-4.4-5.8-9.5-4.6-22.4-5.9-32.6-3.1-19.3 5.1-34.9 22.1-38 41.4-1 6.2-.9 6.5 1.4 8.7 3.6 3.3 3.5 9.5-.1 12.3-8.5 6.7-19.6-4.4-12-12 1.7-1.8 2.4-3.9 2.8-8.4 2.2-24.3 23.2-45.8 49.3-50.5 6.1-1.1 16.2-.4 23.5 1.5m-.8 25.4c16 7.7 24.3 26 19.1 42.5-2.3 7.3-5 9.5-8.2 6.8-2.3-1.8-2.3-1.8-.6-7 7-21.5-11.1-41.8-32-35.8-14.1 4.1-21.9 20.2-16.9 34.8 3.7 10.9 13.4 17.2 26.2 17.1 6-.1 7.4.2 8.2 1.7 3.7 7-12 9.3-24.3 3.7-7.7-3.5-13.2-8.9-16.9-16.5-2.9-5.8-3.2-7.4-3.2-15.1 0-7.1.4-9.6 2.5-14.1 4.4-9.5 11.4-15.8 21.7-19.7 5.6-2 18.5-1.2 24.4 1.6m36.8 4.3c3.7 6.5 6.5 15.3 7.4 23.3 1.3 11.1-2.6 28.2-7.8 34.2-2 2.3-2.5 2.4-4.5 1.3-2.6-1.4-2.6-2.1 1.3-12.2 5.1-13.4 4.4-27.2-2-40.5-4.5-9.4-4.5-11.3.2-11.3 1.8 0 3.1 1.3 5.4 5.2m-43.8 19.7c3 2.7 3.3 3.4 3.2 8.6v5.7l13.9 13.2c10.9 10.3 14.3 13 16.2 12.8 5.1-.7 9.4 3.4 9.5 9 0 2.8-.7 4.2-3.1 6.2-3.5 3-5.8 3.2-9.8 1.1-2.9-1.4-5.4-6.5-4.5-8.8.2-.7-6.1-7.7-14-15.6-12.9-12.9-14.7-14.3-17-13.7-4.2 1-9.4-1.8-11.2-6.1-4.6-10.9 8-20.2 16.8-12.4M83 141c6.8 12.6 20.8 23.8 31.8 25.6 3.4.5 4.2.3 5.1-1.4 1.6-3.1 7.5-4.7 11.2-3.2 1.6.7 3.6 2.2 4.4 3.3 1.8 2.6 6.6 1.9 14.2-2 5.9-2.9 8.5-2.5 9.1 1.5.4 2.7-7.9 7.6-15.7 9.4-3.9.8-6.3 2.1-8.2 4.2-2.2 2.5-3.5 3.1-6.9 3.1s-4.7-.6-6.9-3.1c-1.9-2.1-4.3-3.4-8.4-4.3-15.9-3.5-31.1-16.6-38.1-32.8-1.6-3.5-1.7-4.5-.6-5.8 2.5-3 5.3-1.3 9 5.5"/><path fill="#d4d4d4" d="M129.8 58.7c.7.3 1.6.2 1.9-.1.4-.3-.2-.6-1.3-.5-1.1 0-1.4.3-.6.6M119 124.4c0 .2.8 1 1.8 1.7 1.5 1.3 1.6 1.2.3-.4s-2.1-2.1-2.1-1.3m7.8 4.3c.7.3 1.6.2 1.9-.1.4-.3-.2-.6-1.3-.5-1.1 0-1.4.3-.6.6m33.2 16.8c3 3 5.7 5.5 5.9 5.5.3 0-1.9-2.5-4.9-5.5s-5.7-5.5-5.9-5.5c-.3 0 1.9 2.5 4.9 5.5"/><path fill="#aaa" d="M126.8 58.7c.7.3 1.6.2 1.9-.1.4-.3-.2-.6-1.3-.5-1.1 0-1.4.3-.6.6M86.4 76.2l-2.9 3.3 3.3-2.9c1.7-1.7 3.2-3.1 3.2-3.3 0-.8-.8-.1-3.6 2.9m17 17-1.9 2.3 2.3-1.9c2.1-1.8 2.7-2.6 1.9-2.6-.2 0-1.2 1-2.3 2.2M93.2 118c0 1.9.2 2.7.5 1.7.2-.9.2-2.5 0-3.5-.3-.9-.5-.1-.5 1.8m93.1.5c0 2.2.2 3 .4 1.7.2-1.2.2-3 0-4-.3-.9-.5.1-.4 2.3m-69.1-.5c0 1.4.2 1.9.5 1.2.2-.6.2-1.8 0-2.5-.3-.6-.5-.1-.5 1.3m36.9.6c0 1.1.3 1.4.6.6.3-.7.2-1.6-.1-1.9-.3-.4-.6.2-.5 1.3M91 153.4c0 .2.8 1 1.8 1.7 1.5 1.3 1.6 1.2.3-.4s-2.1-2.1-2.1-1.3"/><path fill="gray" d="M151 92.4c0 .2.8 1 1.8 1.7 1.5 1.3 1.6 1.2.3-.4s-2.1-2.1-2.1-1.3m-42.1 6.3c-1.3 1.6-1.2 1.7.4.4.9-.7 1.7-1.5 1.7-1.7 0-.8-.8-.3-2.1 1.3"/><path fill="#555" d="M153.1 75.6c0 1.1.3 1.4.6.6.3-.7.2-1.6-.1-1.9-.3-.4-.6.2-.5 1.3M133.5 129c1 1.1 2 2 2.3 2s-.3-.9-1.3-2-2-2-2.3-2 .3.9 1.3 2m3.5 3.4c0 .2.8 1 1.8 1.7 1.5 1.3 1.6 1.2.3-.4s-2.1-2.1-2.1-1.3m-35 9c0 .2.8 1 1.8 1.7 1.5 1.3 1.6 1.2.3-.4s-2.1-2.1-2.1-1.3"/><g stroke-width="0"><path d="M114.8 60.6c-13.4 3.2-27.5 13.3-35.4 25.1-4.4 6.6-8 16.5-9 24.8-.5 4.2-1.3 6.4-2.7 7.6-3.2 2.5-2.9 8.5.7 11.5 3.7 3.2 7.1 3 10.7-.5 3.6-3.6 3.7-7 .4-10.9-2.9-3.5-3.1-6.7-.9-14.3 5.1-17.2 17.7-30.5 34.1-36 9-3 22.1-3 30.7 0 8.8 3.1 10.6 4.6 10.6 8.4 0 4.5 3.5 7.7 8.3 7.7 6.3 0 10.2-6 7.7-12.1-1.6-3.7-4.1-5.1-8.8-4.8-2.4.2-5.5-.7-8.9-2.4-10.6-5.4-25.4-7.1-37.5-4.1"/><path d="M121.9 84c-9.9 1.7-20 9.4-24.6 18.9-2.5 4.9-2.8 6.7-2.8 15.1 0 11.9 2.3 17.7 9.9 24.8 6.6 6.2 14.2 9.2 23.4 9.2 7.4 0 10.6-1.5 10-4.6-.3-1.6-1.4-2-8.8-2.4-7.1-.4-9.4-1-14-3.6-19.6-11.1-17.5-40.2 3.5-49 5.2-2.1 15-1.8 20.2.7 6 2.9 12.9 11 14.8 17.2 1.9 6.5 1.9 9.4-.2 17.3-1.5 5.7-1.6 6.6-.3 7.5 4.6 2.9 8.3-3.3 8.8-15 .3-7 0-9.6-1.8-14.3-5.7-15.1-22.1-24.5-38.1-21.8m49.5 2.5c-1.8 1.3-1.8 1.6 1.3 7.2 5.1 9.5 6.6 16.2 6.1 27.7-.4 7.9-1.1 11.6-3.2 16.9-3.1 7.6-3.1 10.1.2 10.5 1.9.3 2.7-.6 4.7-5 7.6-16.6 7.3-36-.7-51-3.6-6.8-5.7-8.4-8.4-6.3"/><path d="M125.3 107.7c-3.7.7-7.3 5.9-7.3 10.5 0 3.1.7 4.6 3 7 2.7 2.6 3.6 2.9 7.3 2.6l4.2-.5 14.3 14.4c11.8 12.1 14.2 14.9 14.2 17.4 0 5.7 6.6 9.5 12.5 7.3 2.5-1 4.7-6.2 4-9.5-.8-3.7-4-5.9-8.5-5.9-3.2 0-4.8-1.3-17.6-14.3-12.5-12.5-14-14.5-13.5-16.7 2-7.2-4.9-13.9-12.6-12.3m-51 28.9c-.8 2 3.7 11.3 8.5 17.7 6.8 8.9 20.6 17.8 30.3 19.3 2.8.5 5.2 1.8 7.5 4 4.6 4.6 9.9 4.7 14.3.4 1.9-2 5.1-3.6 8.6-4.5 11.2-3 17.2-7.6 14-10.9-1-.9-2.2-1.2-3.3-.8-.9.5-3.7 1.7-6.2 2.9-8.3 3.7-10.4 3.8-13.8.4-4.2-4.3-9.3-4.3-13.3 0l-2.8 3.1-5.8-1.7c-12.1-3.5-23.2-12.9-29.3-24.8-2.8-5.3-4-6.7-5.8-6.7-1.2 0-2.5.7-2.9 1.6"/></g></svg>